<svg xmlns:xlink="http://www.w3.org/1999/xlink" xmlns="http://www.w3.org/2000/svg" width="47" height="47" viewBox="0 0 32 32" style="fill:url(#RrOJxCwzKS);" fill="url(#RrOJxCwzKS)"><path d="M16 30c-7.72 0-14-6.28-14-14s6.28-14 14-14 14 6.28 14 14c0 0.552 0.448 1 1 1s1-0.448 1-1c0-8.822-7.178-16-16-16s-16 7.178-16 16 7.178 16 16 16c0.552 0 1-0.448 1-1s-0.448-1-1-1zM16 24c-4.411 0-8-3.589-8-8s3.589-8 8-8 8 3.589 8 8c0 0.552 0.448 1 1 1s1-0.448 1-1c0-5.514-4.486-10-10-10s-10 4.486-10 10 4.486 10 10 10c0.552 0 1-0.448 1-1s-0.448-1-1-1zM31.425 22.091l-15-7c-0.381-0.177-0.832-0.098-1.13 0.199s-0.377 0.749-0.199 1.13l7 15c0.165 0.354 0.52 0.577 0.906 0.577 0.020 0 0.038-0 0.058-0.002 0.409-0.024 0.762-0.294 0.891-0.682l1.842-5.526 5.526-1.842c0.388-0.13 0.658-0.483 0.682-0.891s-0.205-0.791-0.576-0.963zM24.686 24.049c-0.299 0.099-0.532 0.334-0.633 0.633l-1.206 3.619-4.776-10.233 10.233 4.776-3.619 1.206z" fill="url(&quot;#RrOJxCwzKS&quot;)"></path><defs><linearGradient x1="0%" x2="0%" y1="0%" y2="100%" id="RrOJxCwzKS"><stop offset="50%" stop-color="#000000"></stop><stop offset="50%" stop-color="#A30000"></stop></linearGradient><linearGradient x1="0%" x2="0%" y1="0%" y2="100%" id="RrOJxCwzKS"><stop offset="50%" stop-color="#000000"></stop><stop offset="50%" stop-color="#A30000"></stop></linearGradient></defs></svg>