<svg xmlns:xlink="http://www.w3.org/1999/xlink" xmlns="http://www.w3.org/2000/svg" width="47" height="47" viewBox="0 0 32 32" style="fill:url(#10p3RbvaW8);" fill="url(#10p3RbvaW8)"><path d="M29 5h-8c0-2.757-2.243-5-5-5s-5 2.243-5 5h-8c-1.655 0-3 1.345-3 3v7c0 1.303 0.837 2.412 2 2.825v11.175c0 1.654 1.345 3 3 3h22c1.654 0 3-1.346 3-3v-11.175c1.163-0.413 2-1.522 2-2.825v-7c0-1.655-1.346-3-3-3zM16 2c1.654 0 3 1.345 3 3h-6c0-1.655 1.345-3 3-3zM27 30h-22c-0.551 0-1-0.448-1-1v-11h3v1.5c0 0.552 0.448 1 1 1h5c0.552 0 1-0.448 1-1v-1.5h4v1.5c0 0.552 0.448 1 1 1h5c0.552 0 1-0.448 1-1v-1.5h3v11c0 0.552-0.448 1-1 1zM9 18.5v-3h3v3h-3zM20 18.5v-3h3v3h-3zM30 15c0 0.552-0.448 1-1 1h-4v-1.5c0-0.552-0.448-1-1-1h-5c-0.552 0-1 0.448-1 1v1.5h-4v-1.5c0-0.552-0.448-1-1-1h-5c-0.552 0-1 0.448-1 1v1.5h-4c-0.551 0-1-0.448-1-1v-7c0-0.551 0.449-1 1-1h26c0.552 0 1 0.449 1 1v7z" fill="url(&quot;#10p3RbvaW8&quot;)"></path><defs><linearGradient x1="0%" x2="0%" y1="0%" y2="100%" id="10p3RbvaW8"><stop offset="50%" stop-color="#000000"></stop><stop offset="50%" stop-color="#A30000"></stop></linearGradient><linearGradient x1="0%" x2="0%" y1="0%" y2="100%" id="10p3RbvaW8"><stop offset="50%" stop-color="#000000"></stop><stop offset="50%" stop-color="#A30000"></stop></linearGradient></defs></svg>